<svg xmlns="http://www.w3.org/2000/svg" xmlns:xlink="http://www.w3.org/1999/xlink" viewBox="0 0 140.02 187.76"><defs><style>.cls-1,.cls-2{fill:none;}.cls-2,.cls-3{stroke:#231f20;stroke-miterlimit:10;}.cls-3{fill:#fff;}.cls-4{clip-path:url(#clip-path);}.cls-5{fill:#bc0000;}.cls-6{clip-path:url(#clip-path-3);}.cls-7{fill:#009400;}</style><clipPath id="clip-path"><rect class="cls-1" x="119.05" y="69.43" width="14" height="14"/></clipPath><clipPath id="clip-path-3"><rect class="cls-1" x="119.34" y="54.42" width="13.7" height="13.7"/></clipPath></defs><title>elevator_frame</title><g id="Layer_2" data-name="Layer 2"><g id="Layer_1-2" data-name="Layer 1"><path class="cls-2" d="M4.79.5H135.23a4.29,4.29,0,0,1,4.29,4.29V187.26a0,0,0,0,1,0,0H.5a0,0,0,0,1,0,0V4.79A4.29,4.29,0,0,1,4.79.5Z"/><circle class="cls-3" cx="70.01" cy="24.48" r="8.85"/><g class="cls-4"><g class="cls-4"><path class="cls-5" d="M126.44,82.28,132.94,71a.45.45,0,0,0-.39-.68h-13a.45.45,0,0,0-.39.68l6.5,11.26a.45.45,0,0,0,.79,0"/></g></g><g class="cls-6"><g class="cls-6"><path class="cls-7" d="M125.81,55.53l-6.36,11a.44.44,0,0,0,.39.67h12.73a.44.44,0,0,0,.39-.67l-6.36-11a.44.44,0,0,0-.77,0"/></g></g></g></g></svg>